<svg width="128" height="128" viewBox="0 0 128 128" fill="none" xmlns="http://www.w3.org/2000/svg">
<path d="M64 0C55.5131 8.48693 50.7452 19.9977 50.7452 32C50.7452 44.0023 55.5131 55.5131 64 64C72.4869 72.4869 83.9977 77.2548 96 77.2548C108.002 77.2548 119.513 72.4869 128 64C128 76.658 124.246 89.0317 117.214 99.5565C110.182 110.081 100.186 118.284 88.4918 123.128C76.7973 127.972 63.929 129.24 51.5142 126.77C39.0995 124.301 27.6957 118.205 18.7452 109.255C9.79463 100.304 3.69922 88.9005 1.22977 76.4858C-1.23968 64.071 0.02773 51.2027 4.87174 39.5082C9.71574 27.8138 17.9188 17.8184 28.4435 10.7859C38.9683 3.75353 51.342 0 64 0Z" fill="#FFE600"/>
</svg>
